<?xml version="1.0" standalone="no"?><!DOCTYPE svg PUBLIC "-//W3C//DTD SVG 1.1//EN" "http://www.w3.org/Graphics/SVG/1.1/DTD/svg11.dtd"><svg t="1682502222361" class="icon" viewBox="0 0 1024 1024" version="1.1" xmlns="http://www.w3.org/2000/svg" p-id="3910" xmlns:xlink="http://www.w3.org/1999/xlink" width="200" height="200"><path d="M839.68 488.32a19.626667 19.626667 0 0 0 8.32 1.92 21.333333 21.333333 0 0 0 8.533333-40.96L754.56 405.333333l85.333333-43.946666a21.333333 21.333333 0 1 0-19.626666-37.973334l-83.626667 42.666667 23.253333-109.013333a21.333333 21.333333 0 1 0-42.666666-8.746667l-30.506667 143.36-97.493333 50.773333A102.826667 102.826667 0 0 0 533.333333 410.026667v-110.293334l113.066667-92.16A21.333333 21.333333 0 0 0 618.666667 174.506667l-85.333334 70.186666V149.333333a21.333333 21.333333 0 0 0-42.666666 0v94.293334L405.333333 172.8a21.333333 21.333333 0 1 0-27.306666 32.853333L490.666667 298.666667v111.36a101.973333 101.973333 0 0 0-55.253334 32.64l-103.04-65.706667-17.92-145.493333a21.333333 21.333333 0 0 0-24.106666-18.133334 21.333333 21.333333 0 0 0-18.56 23.68l13.44 110.72-65.28-42.666666A21.333333 21.333333 0 0 0 196.906667 341.333333l66.346666 42.666667-105.386666 34.986667a21.333333 21.333333 0 0 0-13.653334 27.093333 21.333333 21.333333 0 0 0 21.333334 14.506667 25.386667 25.386667 0 0 0 5.12-1.066667l138.453333-45.866667 103.893333 66.133334a99.84 99.84 0 0 0-5.546666 32 109.226667 109.226667 0 0 0 2.986666 23.893333l-109.226666 56.746667-134.4-57.173334A21.333333 21.333333 0 0 0 149.333333 574.506667l102.613334 42.666666-68.053334 36.693334a21.333333 21.333333 0 1 0 19.84 37.76l69.76-36.266667-22.613333 108.8a21.333333 21.333333 0 0 0 16.64 25.173333h4.266667a21.333333 21.333333 0 0 0 21.333333-17.066666l29.653333-142.933334 106.666667-55.893333A103.893333 103.893333 0 0 0 490.666667 613.333333v119.466667l-113.28 93.226667a21.333333 21.333333 0 0 0 13.653333 37.973333 21.333333 21.333333 0 0 0 13.653333-4.906667l85.333334-71.04v77.653334a21.333333 21.333333 0 0 0 42.666666 0v-78.72l85.333334 70.186666a21.333333 21.333333 0 0 0 13.44 4.693334 21.333333 21.333333 0 0 0 16.426666-7.68 21.333333 21.333333 0 0 0-2.986666-30.08L533.333333 731.946667v-118.4a102.826667 102.826667 0 0 0 49.706667-26.026667l91.52 58.453333 16.853333 144.853334a21.333333 21.333333 0 0 0 21.333334 18.773333h2.346666a21.333333 21.333333 0 0 0 18.773334-23.68l-12.8-110.506667 80.426666 51.413334a21.333333 21.333333 0 0 0 11.52 3.2 21.333333 21.333333 0 0 0 11.306667-39.253334L744.533333 640l106.666667-34.346667a21.333333 21.333333 0 0 0-13.226667-40.533333l-139.52 45.226667-90.453333-57.6a98.56 98.56 0 0 0 2.986667-72.746667l95.36-49.493333zM512 573.013333A61.226667 61.226667 0 1 1 573.226667 512 61.44 61.44 0 0 1 512 573.013333z" fill="#333333" p-id="3911"></path></svg>